D:\school\WTK\thesis\model\3dpredictsim\Results\batch_windlass\Pog_s1_tmt_bCst_d00_k800_WL30_ig24_pas_GRF.mot
nRows=20
nColumns=19

name D:\school\WTK\thesis\model\3dpredictsim\Results\batch_windlass\Pog_s1_tmt_bCst_d00_k800_WL30_ig24_pas_GRF.mot
datacolumns 19
datarows 20
range 0.0000000000 0.2131261112
endheader
time 	ground_force_vx	ground_force_vy	ground_force_vz	ground_force_px	ground_force_py	ground_force_pz	1_ground_force_vx	1_ground_force_vy	1_ground_force_vz	1_ground_force_px	1_ground_force_py	1_ground_force_pz	ground_torque_x	ground_torque_y	ground_torque_z	1_ground_torque_x	1_ground_torque_y	1_ground_torque_z
        0.0000000000	      -46.9246062344	       31.7544756866	       12.7357767708	        0.1698244009	        0.0000000000	        0.0432215981	      104.4872680682	      525.9151026314	       -1.2720908543	       -0.3098674671	        0.0000000000	       -0.0333215321	        0.0000000000	        0.0000000000	        0.0000000000	        0.0000000000	        0.0000000000	        0.0000000000	
        0.0112171637	      -82.7334399183	       66.9343243584	       28.6242357587	        0.1823922088	        0.0000000000	        0.0396459031	       86.7549813069	      438.9487086431	       -3.2658385181	       -0.3058672222	        0.0000000000	       -0.0320016859	        0.0000000000	        0.0000000000	        0.0000000000	        0.0000000000	        0.0000000000	        0.0000000000	
        0.0224343275	     -133.2495739129	      146.1403335468	       68.8078084671	        0.1902301145	        0.0000000000	        0.0373808513	       63.1377032509	      345.8647885133	       -9.3370813262	       -0.3000278078	        0.0000000000	       -0.0297849508	        0.0000000000	        0.0000000000	        0.0000000000	        0.0000000000	        0.0000000000	        0.0000000000	
        0.0336514912	      -64.6499356152	      297.2852765346	       31.0739165840	        0.1964198171	        0.0000000000	        0.0351907556	       33.8326543536	      242.9865124517	      -11.9297659421	       -0.2901326226	        0.0000000000	       -0.0252133601	        0.0000000000	        0.0000000000	        0.0000000000	        0.0000000000	        0.0000000000	        0.0000000000	
        0.0448686550	      -49.6919561104	      482.3112997047	        1.9028743269	        0.2011944167	        0.0000000000	        0.0354935170	       13.7368069137	      162.1412969419	      -10.2453434819	       -0.2763637051	        0.0000000000	       -0.0175670979	        0.0000000000	        0.0000000000	        0.0000000000	        0.0000000000	        0.0000000000	        0.0000000000	
        0.0560858187	      -76.5109720099	      690.5186100851	       -9.6726628089	        0.2095593750	        0.0000000000	        0.0379258786	        1.9547161784	      129.9545715981	       -8.7291754831	       -0.2764093171	        0.0000000000	       -0.0173803016	        0.0000000000	        0.0000000000	        0.0000000000	        0.0000000000	        0.0000000000	        0.0000000000	
        0.0673029825	     -100.8808453619	      812.6136329111	      -15.1552348207	        0.2158476925	        0.0000000000	        0.0397298724	       -2.6638015478	       86.0184695846	       -7.9190489604	       -0.2761469372	        0.0000000000	       -0.0174457445	        0.0000000000	        0.0000000000	        0.0000000000	        0.0000000000	        0.0000000000	        0.0000000000	
        0.0785201462	     -110.8022594655	      856.1033300189	      -16.9501687627	        0.2208134228	        0.0000000000	        0.0410080961	       -9.6110930545	       36.0655040111	       -5.0133781819	       -0.2768312074	        0.0000000000	       -0.0175153951	        0.0000000000	        0.0000000000	        0.0000000000	        0.0000000000	        0.0000000000	        0.0000000000	
        0.0897373100	     -116.2557087084	      865.8555610703	      -16.5766818600	        0.2249533953	        0.0000000000	        0.0418497165	        0.1117991275	       -0.1130867080	        0.0006601366	        0.0000000000	        0.0000000000	        0.0000000000	        0.0000000000	        0.0000000000	        0.0000000000	        0.0000000000	        0.0000000000	        0.0000000000	
        0.1009544737	     -108.6161175855	      858.2496443898	      -16.2223834197	        0.2287144403	        0.0000000000	        0.0420959320	        0.0000731964	       -0.0000614961	       -0.0000047578	        0.0000000000	        0.0000000000	        0.0000000000	        0.0000000000	        0.0000000000	        0.0000000000	        0.0000000000	        0.0000000000	        0.0000000000	
        0.1121716375	      -95.5109593908	      826.1803097770	      -16.7198855469	        0.2326887408	        0.0000000000	        0.0421277979	        0.0000176609	       -0.0000129708	       -0.0000013582	        0.0000000000	        0.0000000000	        0.0000000000	        0.0000000000	        0.0000000000	        0.0000000000	        0.0000000000	        0.0000000000	        0.0000000000	
        0.1233888012	      -82.9718094589	      786.6776034276	      -16.7852981677	        0.2372084223	        0.0000000000	        0.0420343778	        0.0000706157	       -0.0000466176	       -0.0000058795	        0.0000000000	        0.0000000000	        0.0000000000	        0.0000000000	        0.0000000000	        0.0000000000	        0.0000000000	        0.0000000000	        0.0000000000	
        0.1346059650	      -71.0902830919	      743.6983637798	      -16.4866802412	        0.2415506440	        0.0000000000	        0.0419078548	        0.0024772728	       -0.0015153002	       -0.0002072181	        0.0000000000	        0.0000000000	        0.0000000000	        0.0000000000	        0.0000000000	        0.0000000000	        0.0000000000	        0.0000000000	        0.0000000000	
        0.1458231287	      -59.9301515616	      702.7274965218	      -16.5427823923	        0.2454897853	        0.0000000000	        0.0418458315	       -0.0170881837	        0.0098068242	        0.0014179645	        0.0000000000	        0.0000000000	        0.0000000000	        0.0000000000	        0.0000000000	        0.0000000000	        0.0000000000	        0.0000000000	        0.0000000000	
        0.1570402925	      -49.6853669081	      668.0942556592	      -17.0083047608	        0.2492259233	        0.0000000000	        0.0418511264	       -0.0148108024	        0.0080073574	        0.0012392509	        0.0000000000	        0.0000000000	        0.0000000000	        0.0000000000	        0.0000000000	        0.0000000000	        0.0000000000	        0.0000000000	        0.0000000000	
        0.1682574562	      -40.6813335847	      640.4614075990	      -17.6473308006	        0.2530006463	        0.0000000000	        0.0419049571	       -0.0090825787	        0.0046379401	        0.0007801403	        0.0000000000	        0.0000000000	        0.0000000000	        0.0000000000	        0.0000000000	        0.0000000000	        0.0000000000	        0.0000000000	        0.0000000000	
        0.1794746200	      -33.2321379869	      618.8287796899	      -18.4703856811	        0.2568932765	        0.0000000000	        0.0419837729	       -0.0067686211	        0.0032788926	        0.0006015191	        0.0000000000	        0.0000000000	        0.0000000000	        0.0000000000	        0.0000000000	        0.0000000000	        0.0000000000	        0.0000000000	        0.0000000000	
        0.1906917837	      -27.0917922710	      602.0586775358	      -19.0406661563	        0.2608539223	        0.0000000000	        0.0420762028	       -0.0067153717	        0.0031052707	        0.0006153977	        0.0000000000	        0.0000000000	        0.0000000000	        0.0000000000	        0.0000000000	        0.0000000000	        0.0000000000	        0.0000000000	        0.0000000000	
        0.2019089475	      -21.9878394246	      589.8035840323	      -19.3994605791	        0.2651326217	        0.0000000000	        0.0421596093	       -0.0088620315	        0.0039386918	        0.0008304864	        0.0000000000	        0.0000000000	        0.0000000000	        0.0000000000	        0.0000000000	        0.0000000000	        0.0000000000	        0.0000000000	        0.0000000000	
        0.2131261112	      -19.2863663617	      582.4599154299	      -19.4527485260	        0.2697205392	        0.0000000000	        0.0422070730	       -0.0149082452	        0.0064099035	        0.0014158177	        0.0000000000	        0.0000000000	        0.0000000000	        0.0000000000	        0.0000000000	        0.0000000000	        0.0000000000	        0.0000000000	        0.0000000000	
